<?xml version="1.0" encoding="UTF-8" standalone="no"?>
<!-- Created with Inkscape (http://www.inkscape.org/) -->

<svg
   version="1.1"
   id="svg1"
   width="470.02667"
   height="411.39999"
   viewBox="0 0 470.02667 411.39999"
   sodipodi:docname="RaffCast_vektor.eps"
   xmlns:inkscape="http://www.inkscape.org/namespaces/inkscape"
   xmlns:sodipodi="http://sodipodi.sourceforge.net/DTD/sodipodi-0.dtd"
   xmlns="http://www.w3.org/2000/svg"
   xmlns:svg="http://www.w3.org/2000/svg">
  <defs
     id="defs1" />
  <sodipodi:namedview
     id="namedview1"
     pagecolor="#ffffff"
     bordercolor="#000000"
     borderopacity="0.25"
     inkscape:showpageshadow="2"
     inkscape:pageopacity="0.0"
     inkscape:pagecheckerboard="0"
     inkscape:deskcolor="#d1d1d1">
    <inkscape:page
       x="0"
       y="0"
       inkscape:label="1"
       id="page1"
       width="470.02667"
       height="411.39999"
       margin="0"
       bleed="0" />
  </sodipodi:namedview>
  <g
     id="g1"
     inkscape:groupmode="layer"
     inkscape:label="1">
    <g
       id="group-R5">
      <path
         id="path2"
         d="M 3525.21,804.262 H 0 V 3085.49 H 3525.21 V 804.262"
         style="fill:#a6da48;fill-opacity:1;fill-rule:nonzero;stroke:none"
         transform="matrix(0.13333333,0,0,-0.13333333,0,411.4)" />
      <text
         id="text2"
         xml:space="preserve"
         transform="matrix(1.3333333,0,0,1.3333333,86.530667,379.17707)"><tspan
           id="tspan2"
           style="font-variant:normal;font-weight:500;font-size:63.6px;font-family:BrandonGrotesque-Medium;writing-mode:lr-tb;fill:#231f20;fill-opacity:1;fill-rule:nonzero;stroke:none"
           x="0"
           dx="0 -1.3989965 0 0 -0.50880003"
           y="0">RaﬀCast</tspan></text>
      <path
         id="path3"
         d="M 52.2578,2848.16 V 1080.99"
         style="fill:none;stroke:#53237a;stroke-width:60;stroke-linecap:round;stroke-linejoin:miter;stroke-miterlimit:10;stroke-dasharray:none;stroke-opacity:1"
         transform="matrix(0.13333333,0,0,-0.13333333,0,411.4)" />
      <path
         id="path4"
         d="M 479.988,2088.33 V 1738.99"
         style="fill:none;stroke:#53237a;stroke-width:60;stroke-linecap:round;stroke-linejoin:miter;stroke-miterlimit:10;stroke-dasharray:none;stroke-opacity:1"
         transform="matrix(0.13333333,0,0,-0.13333333,0,411.4)" />
      <path
         id="path5"
         d="M 383.266,2260.84 V 1568.26"
         style="fill:none;stroke:#53237a;stroke-width:60;stroke-linecap:round;stroke-linejoin:miter;stroke-miterlimit:10;stroke-dasharray:none;stroke-opacity:1"
         transform="matrix(0.13333333,0,0,-0.13333333,0,411.4)" />
      <path
         id="path6"
         d="M 268.383,2480.76 V 1409.89"
         style="fill:none;stroke:#53237a;stroke-width:60;stroke-linecap:round;stroke-linejoin:miter;stroke-miterlimit:10;stroke-dasharray:none;stroke-opacity:1"
         transform="matrix(0.13333333,0,0,-0.13333333,0,411.4)" />
      <path
         id="path7"
         d="M 170.719,2701.38 V 1247.78"
         style="fill:none;stroke:#53237a;stroke-width:60;stroke-linecap:round;stroke-linejoin:miter;stroke-miterlimit:10;stroke-dasharray:none;stroke-opacity:1"
         transform="matrix(0.13333333,0,0,-0.13333333,0,411.4)" />
      <path
         id="path8"
         d="M 576.273,2260.84 V 1568.26"
         style="fill:none;stroke:#53237a;stroke-width:60;stroke-linecap:round;stroke-linejoin:miter;stroke-miterlimit:10;stroke-dasharray:none;stroke-opacity:1"
         transform="matrix(0.13333333,0,0,-0.13333333,0,411.4)" />
      <path
         id="path9"
         d="M 691.156,2480.76 V 1409.89"
         style="fill:none;stroke:#53237a;stroke-width:60;stroke-linecap:round;stroke-linejoin:miter;stroke-miterlimit:10;stroke-dasharray:none;stroke-opacity:1"
         transform="matrix(0.13333333,0,0,-0.13333333,0,411.4)" />
      <path
         id="path10"
         d="M 788.82,2701.38 V 1247.78"
         style="fill:none;stroke:#53237a;stroke-width:60;stroke-linecap:round;stroke-linejoin:miter;stroke-miterlimit:10;stroke-dasharray:none;stroke-opacity:1"
         transform="matrix(0.13333333,0,0,-0.13333333,0,411.4)" />
      <path
         id="path11"
         d="M 907.719,2848.16 V 1080.99"
         style="fill:none;stroke:#53237a;stroke-width:60;stroke-linecap:round;stroke-linejoin:miter;stroke-miterlimit:10;stroke-dasharray:none;stroke-opacity:1"
         transform="matrix(0.13333333,0,0,-0.13333333,0,411.4)" />
      <path
         id="path12"
         d="M 1335.45,2088.33 V 1738.99"
         style="fill:none;stroke:#53237a;stroke-width:60;stroke-linecap:round;stroke-linejoin:miter;stroke-miterlimit:10;stroke-dasharray:none;stroke-opacity:1"
         transform="matrix(0.13333333,0,0,-0.13333333,0,411.4)" />
      <path
         id="path13"
         d="M 1238.72,2260.84 V 1568.26"
         style="fill:none;stroke:#53237a;stroke-width:60;stroke-linecap:round;stroke-linejoin:miter;stroke-miterlimit:10;stroke-dasharray:none;stroke-opacity:1"
         transform="matrix(0.13333333,0,0,-0.13333333,0,411.4)" />
      <path
         id="path14"
         d="M 1123.84,2480.76 V 1409.89"
         style="fill:none;stroke:#53237a;stroke-width:60;stroke-linecap:round;stroke-linejoin:miter;stroke-miterlimit:10;stroke-dasharray:none;stroke-opacity:1"
         transform="matrix(0.13333333,0,0,-0.13333333,0,411.4)" />
      <path
         id="path15"
         d="M 1026.18,2701.38 V 1247.78"
         style="fill:none;stroke:#53237a;stroke-width:60;stroke-linecap:round;stroke-linejoin:miter;stroke-miterlimit:10;stroke-dasharray:none;stroke-opacity:1"
         transform="matrix(0.13333333,0,0,-0.13333333,0,411.4)" />
      <path
         id="path16"
         d="M 1431.74,2260.84 V 1568.26"
         style="fill:none;stroke:#53237a;stroke-width:60;stroke-linecap:round;stroke-linejoin:miter;stroke-miterlimit:10;stroke-dasharray:none;stroke-opacity:1"
         transform="matrix(0.13333333,0,0,-0.13333333,0,411.4)" />
      <path
         id="path17"
         d="M 1546.62,2480.76 V 1409.89"
         style="fill:none;stroke:#53237a;stroke-width:60;stroke-linecap:round;stroke-linejoin:miter;stroke-miterlimit:10;stroke-dasharray:none;stroke-opacity:1"
         transform="matrix(0.13333333,0,0,-0.13333333,0,411.4)" />
      <path
         id="path18"
         d="M 1644.29,2701.38 V 1247.78"
         style="fill:none;stroke:#53237a;stroke-width:60;stroke-linecap:round;stroke-linejoin:miter;stroke-miterlimit:10;stroke-dasharray:none;stroke-opacity:1"
         transform="matrix(0.13333333,0,0,-0.13333333,0,411.4)" />
      <path
         id="path19"
         d="M 1763.19,2848.16 V 1080.99"
         style="fill:none;stroke:#53237a;stroke-width:60;stroke-linecap:round;stroke-linejoin:miter;stroke-miterlimit:10;stroke-dasharray:none;stroke-opacity:1"
         transform="matrix(0.13333333,0,0,-0.13333333,0,411.4)" />
      <path
         id="path20"
         d="M 2190.92,2088.33 V 1738.99"
         style="fill:none;stroke:#53237a;stroke-width:60;stroke-linecap:round;stroke-linejoin:miter;stroke-miterlimit:10;stroke-dasharray:none;stroke-opacity:1"
         transform="matrix(0.13333333,0,0,-0.13333333,0,411.4)" />
      <path
         id="path21"
         d="M 2094.19,2260.84 V 1568.26"
         style="fill:none;stroke:#53237a;stroke-width:60;stroke-linecap:round;stroke-linejoin:miter;stroke-miterlimit:10;stroke-dasharray:none;stroke-opacity:1"
         transform="matrix(0.13333333,0,0,-0.13333333,0,411.4)" />
      <path
         id="path22"
         d="M 1979.31,2480.76 V 1409.89"
         style="fill:none;stroke:#53237a;stroke-width:60;stroke-linecap:round;stroke-linejoin:miter;stroke-miterlimit:10;stroke-dasharray:none;stroke-opacity:1"
         transform="matrix(0.13333333,0,0,-0.13333333,0,411.4)" />
      <path
         id="path23"
         d="M 1881.65,2701.38 V 1247.78"
         style="fill:none;stroke:#53237a;stroke-width:60;stroke-linecap:round;stroke-linejoin:miter;stroke-miterlimit:10;stroke-dasharray:none;stroke-opacity:1"
         transform="matrix(0.13333333,0,0,-0.13333333,0,411.4)" />
      <path
         id="path24"
         d="M 2191.25,2088.33 V 1738.99"
         style="fill:none;stroke:#53237a;stroke-width:60;stroke-linecap:round;stroke-linejoin:miter;stroke-miterlimit:10;stroke-dasharray:none;stroke-opacity:1"
         transform="matrix(0.13333333,0,0,-0.13333333,0,411.4)" />
      <path
         id="path25"
         d="M 2287.98,2260.84 V 1568.26"
         style="fill:none;stroke:#53237a;stroke-width:60;stroke-linecap:round;stroke-linejoin:miter;stroke-miterlimit:10;stroke-dasharray:none;stroke-opacity:1"
         transform="matrix(0.13333333,0,0,-0.13333333,0,411.4)" />
      <path
         id="path26"
         d="M 2402.86,2480.76 V 1409.89"
         style="fill:none;stroke:#53237a;stroke-width:60;stroke-linecap:round;stroke-linejoin:miter;stroke-miterlimit:10;stroke-dasharray:none;stroke-opacity:1"
         transform="matrix(0.13333333,0,0,-0.13333333,0,411.4)" />
      <path
         id="path27"
         d="M 2500.52,2701.38 V 1247.78"
         style="fill:none;stroke:#53237a;stroke-width:60;stroke-linecap:round;stroke-linejoin:miter;stroke-miterlimit:10;stroke-dasharray:none;stroke-opacity:1"
         transform="matrix(0.13333333,0,0,-0.13333333,0,411.4)" />
      <path
         id="path28"
         d="M 2619.42,2848.16 V 1080.99"
         style="fill:none;stroke:#53237a;stroke-width:60;stroke-linecap:round;stroke-linejoin:miter;stroke-miterlimit:10;stroke-dasharray:none;stroke-opacity:1"
         transform="matrix(0.13333333,0,0,-0.13333333,0,411.4)" />
      <path
         id="path29"
         d="M 3047.15,2088.33 V 1738.99"
         style="fill:none;stroke:#53237a;stroke-width:60;stroke-linecap:round;stroke-linejoin:miter;stroke-miterlimit:10;stroke-dasharray:none;stroke-opacity:1"
         transform="matrix(0.13333333,0,0,-0.13333333,0,411.4)" />
      <path
         id="path30"
         d="M 2950.43,2260.84 V 1568.26"
         style="fill:none;stroke:#53237a;stroke-width:60;stroke-linecap:round;stroke-linejoin:miter;stroke-miterlimit:10;stroke-dasharray:none;stroke-opacity:1"
         transform="matrix(0.13333333,0,0,-0.13333333,0,411.4)" />
      <path
         id="path31"
         d="M 2835.55,2480.76 V 1409.89"
         style="fill:none;stroke:#53237a;stroke-width:60;stroke-linecap:round;stroke-linejoin:miter;stroke-miterlimit:10;stroke-dasharray:none;stroke-opacity:1"
         transform="matrix(0.13333333,0,0,-0.13333333,0,411.4)" />
      <path
         id="path32"
         d="M 2737.88,2701.38 V 1247.78"
         style="fill:none;stroke:#53237a;stroke-width:60;stroke-linecap:round;stroke-linejoin:miter;stroke-miterlimit:10;stroke-dasharray:none;stroke-opacity:1"
         transform="matrix(0.13333333,0,0,-0.13333333,0,411.4)" />
      <path
         id="path33"
         d="M 3143.44,2260.84 V 1568.26"
         style="fill:none;stroke:#53237a;stroke-width:60;stroke-linecap:round;stroke-linejoin:miter;stroke-miterlimit:10;stroke-dasharray:none;stroke-opacity:1"
         transform="matrix(0.13333333,0,0,-0.13333333,0,411.4)" />
      <path
         id="path34"
         d="M 3258.32,2480.76 V 1409.89"
         style="fill:none;stroke:#53237a;stroke-width:60;stroke-linecap:round;stroke-linejoin:miter;stroke-miterlimit:10;stroke-dasharray:none;stroke-opacity:1"
         transform="matrix(0.13333333,0,0,-0.13333333,0,411.4)" />
      <path
         id="path35"
         d="M 3355.98,2701.38 V 1247.78"
         style="fill:none;stroke:#53237a;stroke-width:60;stroke-linecap:round;stroke-linejoin:miter;stroke-miterlimit:10;stroke-dasharray:none;stroke-opacity:1"
         transform="matrix(0.13333333,0,0,-0.13333333,0,411.4)" />
      <path
         id="path36"
         d="M 3474.88,2848.16 V 1080.99"
         style="fill:none;stroke:#53237a;stroke-width:60;stroke-linecap:round;stroke-linejoin:miter;stroke-miterlimit:10;stroke-dasharray:none;stroke-opacity:1"
         transform="matrix(0.13333333,0,0,-0.13333333,0,411.4)" />
    </g>
  </g>
</svg>
